Coordinates
version=1
nRows=5
nColumns=46
inDegrees=yes

Units are S.I. units (second, meters, Newtons, ...)
Angles are in degrees.

endheader
time	pelvis_tilt	pelvis_list	pelvis_rotation	pelvis_tx	pelvis_ty	pelvis_tz	bb_angle	bb_tx	bb_ty	bb_tz	hip_flexion_r	hip_adduction_r	hip_rotation_r	knee_angle_r	knee_angle_r_beta	ankle_angle_r	subtalar_angle_r	mtp_angle_r	crank_angle_r	hip_flexion_l	hip_adduction_l	hip_rotation_l	knee_angle_l	knee_angle_l_beta	ankle_angle_l	subtalar_angle_l	mtp_angle_l	crank_angle_l	lumbar_extension	lumbar_bending	lumbar_rotation	arm_flex_r	arm_add_r	arm_rot_r	elbow_flex_r	pro_sup_r	wrist_flex_r	wrist_dev_r	arm_flex_l	arm_add_l	arm_rot_l	elbow_flex_l	pro_sup_l	wrist_flex_l	wrist_dev_l
      7.50000000	    -29.39049686	      0.70028180	    -11.64836480	      0.30790871	      1.17131564	     -0.29833483	      0.00000000	      0.50000000	      0.00000000	      0.25000000	     64.23107189	      1.74232737	      2.75337243	     58.45720372	      1.02027068	      3.45006092	     -4.52078950	      0.00000000	      0.00000000	     53.22789354	     -6.78706016	      0.63712653	     70.34591180	      1.22776778	    -36.43460830	    -10.80419632	      0.00000000	      0.00000000	    -63.95463927	     -7.03126593	     10.15782796	     51.55487534	    -39.90047356	     16.73397840	    103.64013472	     52.33869565	      0.00000000	      0.00000000	     50.93796934	    -18.97370397	     18.08763638	     93.81231505	     50.80673785	      0.00000000	      0.00000000
      7.50500000	    -29.39084047	      1.30886644	    -10.89042642	      0.30797455	      1.16930124	     -0.29834017	      0.00000000	      0.50000000	      0.00000000	      0.25000000	     62.92328422	      0.98937537	      3.19911055	     55.97552515	      0.97695721	      2.40200520	     -5.25434659	      0.00000000	      0.00000000	     54.48850714	     -5.94213837	      0.65409902	     72.86553067	      1.27174342	    -35.22025853	    -10.71179913	      0.00000000	      0.00000000	    -63.58651291	     -7.20030301	     11.23299932	     48.45759056	    -42.29847117	     13.97940092	    105.27805464	     52.34669049	      0.00000000	      0.00000000	     52.65603926	    -17.22376091	     20.71056312	     91.19313496	     50.73655345	      0.00000000	      0.00000000
      7.51000000	    -29.30383988	      2.12743344	    -10.14587531	      0.30837267	      1.16733459	     -0.29853642	      0.00000000	      0.50000000	      0.00000000	      0.25000000	     61.51916307	      0.04798243	      3.86525658	     53.53323182	      0.93433115	      1.99572195	     -5.33691305	      0.00000000	      0.00000000	     55.57203727	     -4.97339805	      0.32868710	     75.25961565	      1.31352809	    -34.06979813	    -11.09217530	      0.00000000	      0.00000000	    -63.35096597	     -7.31703979	     10.37625760	     48.08616802	    -42.47501473	     13.92809494	    105.22725915	     52.33944319	      0.00000000	      0.00000000	     52.63271943	    -17.03543303	     20.88296154	     91.11130890	     50.74419087	      0.00000000	      0.00000000
      7.51500000	    -29.32360922	      2.64694433	     -9.17076991	      0.30846986	      1.16496787	     -0.29847926	      0.00000000	      0.50000000	      0.00000000	      0.25000000	     60.14184756	     -0.80919157	      4.16751159	     51.08658792	      0.89162916	      0.67984818	     -6.39220329	      0.00000000	      0.00000000	     56.87713551	     -4.18225495	      0.35986708	     77.84857270	      1.35871391	    -32.12958566	    -10.57037963	      0.00000000	      0.00000000	    -62.90493741	     -7.04180349	      9.82357465	     46.97543953	    -42.84960187	     13.64378926	    105.17624029	     52.32027371	      0.00000000	      0.00000000	     52.74300723	    -16.88207039	     21.43001322	     90.62043043	     50.73427739	      0.00000000	      0.00000000
      7.52000000	    -29.34020843	      3.24094577	     -8.23372215	      0.30862128	      1.16246775	     -0.29817842	      0.00000000	      0.50000000	      0.00000000	      0.25000000	     58.73997578	     -1.65986224	      4.64114089	     48.67086405	      0.84946683	     -0.30461742	     -7.15609949	      0.00000000	      0.00000000	     58.16554130	     -3.42441738	      0.22402778	     80.38408312	      1.40296692	    -30.34798603	    -10.30272247	      0.00000000	      0.00000000	    -62.56432898	     -7.21404200	     11.15030221	     42.59789318	    -45.39489284	      9.31198939	    107.42528678	     52.30948176	      0.00000000	      0.00000000	     54.47734998	    -14.62636419	     23.90871145	     88.12968442	     50.71539685	      0.00000000	      0.00000000
